<?xml version="1.0" encoding="UTF-8"?>
<svg id="Layer_2" data-name="Layer 2" xmlns="http://www.w3.org/2000/svg" viewBox="0 0 800 400">
  <defs>
    <style>
      .cls-1 {
        fill: #60605d;
        stroke-width: 0px;
      }

      .cls-2 {
        fill: #fee125;
        stroke: #fff;
        stroke-miterlimit: 10;
        stroke-width: 3px;
      }
    </style>
  </defs>
  <g id="Layer_1-2" data-name="Layer 1">
    <g>
      <rect class="cls-1" width="800" height="400"/>
      <g>
        <path class="cls-2" d="M199.49,217.26c6.13-5.95,13.36-17.4,21.68-34.34,2.31-4.68,4.1-8.21,5.38-10.58,4.05-7.86,8.76-15.18,14.14-21.94s10.96-12.43,16.74-17c-4.05-4.34-8.77-7.55-14.18-9.63-5.41-2.08-11.64-3.12-18.69-3.12-9.02,0-17.52,2.11-25.5,6.33-7.98,4.22-14.69,10.21-20.12,17.95-3.64,5.15-6.5,10.39-8.59,15.74-2.08,5.35-3.12,9.93-3.12,13.75,0,4.22,1.39,7.65,4.16,10.28,2.78,2.63,6.42,3.95,10.93,3.95,9.19,0,17.65-4.52,25.37-13.57,7.72-9.05,11.58-19.21,11.58-30.48,0-.35-.03-.74-.09-1.17-.06-.43-.09-.68-.09-.74,0-1.1.13-1.96.39-2.6.26-.64.59-.95,1-.95.58,0,1.03.29,1.34.87.32.58.48,1.42.48,2.52,0,13.01-4.12,24.46-12.36,34.34-8.24,9.89-17.62,14.83-28.14,14.83-7.11,0-13.07-2.37-17.87-7.11-4.8-4.74-7.2-10.55-7.2-17.43,0-5.2,1.33-10.23,3.99-15.09,2.66-4.86,6.71-9.65,12.14-14.4,7.28-6.24,15.36-11.11,24.24-14.61,8.87-3.5,17.56-5.25,26.06-5.25,7.75,0,14.66,1.11,20.73,3.34,6.07,2.23,11.48,5.62,16.22,10.19,2.6-1.73,5-3.12,7.2-4.16,2.2-1.04,3.76-1.56,4.68-1.56.23,0,.46.07.69.22.23.15.35.3.35.48,0,.64-1.32,1.56-3.95,2.78-2.63,1.21-4.87,2.72-6.72,4.51,4.16,4.97,7.23,10.1,9.19,15.39,1.96,5.29,2.95,11.06,2.95,17.3,0,7.75-1.43,15.63-4.29,23.63-2.86,8.01-6.78,15.11-11.75,21.29-4.51,5.72-9.73,10.2-15.65,13.44-5.93,3.24-11.84,4.86-17.74,4.86-3.64,0-7.2-.4-10.67-1.21-3.47-.81-7.26-2.17-11.36-4.08-4.22,1.97-8.43,3.43-12.62,4.38-4.19.96-8.31,1.43-12.36,1.43-6.82,0-12.23-.94-16.22-2.82-3.99-1.88-5.98-4.35-5.98-7.41,0-2.72,1.5-4.86,4.51-6.42,3.01-1.56,7.17-2.34,12.49-2.34,3.3,0,6.91.45,10.84,1.34,3.93.9,9.19,2.53,15.78,4.9ZM196.2,220.64c-4.34-2.2-8.7-3.87-13.1-5.03-4.39-1.16-8.62-1.73-12.66-1.73-3.53,0-6.24.51-8.15,1.52-1.91,1.01-2.86,2.47-2.86,4.38s1.65,3.7,4.94,5.2c3.3,1.5,7.37,2.25,12.23,2.25,3.87,0,7.38-.53,10.54-1.6,3.15-1.07,6.17-2.73,9.06-4.99ZM211.29,220.64c3.53,1.73,6.43,2.93,8.72,3.6,2.28.67,4.58,1,6.89,1,5.03,0,9.87-1.18,14.53-3.56,4.65-2.37,8.98-5.87,12.97-10.49,4.68-5.38,8.53-12.21,11.53-20.51,3.01-8.3,4.51-16.32,4.51-24.07,0-5.78-.82-11.17-2.47-16.17-1.65-5-4.21-9.84-7.68-14.53-3.93,4.97-7.92,14.66-11.97,29.05-2.31,8.15-4.25,14.4-5.81,18.73-3.01,8.27-7.05,15.39-12.14,21.38-5.09,5.98-11.45,11.17-19.08,15.57Z"/>
        <path class="cls-2" d="M643.43,181.26c-.69-.17-1.12-.26-1.29-.26-2.9,0-13.13,8.56-30.7,25.67l-3.39,3.3c-4.97,4.8-9.24,8.51-12.79,11.14-3.56,2.63-6.06,3.94-7.51,3.94-.58,0-1.04-.14-1.39-.44-.34-.28-.52-.66-.52-1.12,0-1.1,1.22-3.13,3.65-6.07,1.04-1.27,1.91-2.33,2.59-3.21,5.27-6.76,8.76-11.95,10.5-15.56,1.73-3.61,2.59-7.07,2.59-10.36,0-4.45-.96-7.95-2.9-10.46s-4.64-3.78-8.11-3.78c-3.93,0-8.75,2.19-14.48,6.55-5.72,4.37-12.49,11.06-20.3,20.08,1.1-2.66,1.94-5.25,2.52-7.77.57-2.51.86-4.95.86-7.33,0-3.41-.69-6.16-2.04-8.23-1.36-2.08-3.11-3.13-5.25-3.13s-4.81,1.27-8.16,3.81c-3.35,2.55-7.63,6.57-12.84,12.05-1.27,1.28-2.18,2.3-2.72,3.08-.25.34-.44.67-.57.98-4.88,4.7-8.82,8.37-11.79,11.04-6.07,5.38-11.6,9.76-16.61,13.13-5,3.39-9.3,5.68-12.87,6.9l28.18-51.18-17.52,1.48-4.85,8.32c-.58-3.23-2-5.68-4.29-7.33-2.29-1.65-5.34-2.47-9.15-2.47s-8.24,1.03-12.92,3.08c-4.69,2.06-9.57,5.04-14.66,8.98-3.47,2.79-6.37,5.58-8.7,8.35-3.43,3.33-7.55,7.44-12.37,12.3-6.12,6.24-11.23,11-15.31,14.26-4.07,3.27-6.92,4.9-8.54,4.9-.46,0-.84-.14-1.12-.43s-.44-.66-.44-1.14c0-.75.71-2.59,2.13-5.54,1.41-2.95,3.48-6.92,6.19-11.89l17.95-32.87-18.47,1.3c-1.97,2.43-4.59,5.29-7.89,8.58-.46.46-.78.78-.96.96l-4.19,4.19c-1.95,1.72-4.12,3.72-6.51,5.99-9.86,9.4-18.44,16.96-25.72,22.69,2.25-2.55,3.86-4.93,4.82-7.15.95-2.23,1.42-4.7,1.42-7.42,0-5.6-1.63-10.87-4.89-15.78-3.27-4.91-4.9-7.89-4.9-8.93,0-1.22.76-2.68,2.3-4.38,1.53-1.71,2.3-2.78,2.3-3.26s-.21-.89-.65-1.29c-.44-.41-.91-.62-1.43-.62-1.1,0-2.31,1.18-3.64,3.56-.64,1.15-1.16,2.05-1.56,2.69-.92,1.33-3.5,3.98-7.72,7.97-1.1,1.04-1.97,1.86-2.61,2.43l-5.29,5.03c-.38.34-.81.75-1.3,1.2-.24.22-.5.46-.78.71-1.02.89-2.08,1.85-3.2,2.87-5.03,4.57-9.08,8.18-12.15,10.85-9.25,8.09-16.42,13.49-21.5,16.17-5.09,2.69-9.92,4.03-14.48,4.03-1.86,0-3.21-.26-4.09-.78-.86-.52-1.29-1.39-1.29-2.59,0-.98.26-2.39.77-4.22.52-1.81,1.44-4.61,2.78-8.36,10.75-1.8,19.51-5.07,26.27-9.8,6.76-4.74,10.15-9.89,10.15-15.44,0-3.47-1.01-6.19-3.03-8.19-2.02-1.99-4.81-3-8.32-3-3.88,0-8.21,1.01-12.97,3-4.77,2-9.5,4.78-14.19,8.37-5.49,4.22-9.6,8.51-12.31,12.87-2.72,4.37-4.07,8.83-4.07,13.4,0,5.43,1.8,9.84,5.42,13.23,3.61,3.39,8.4,5.07,14.35,5.07,5.6,0,11.33-1.59,17.17-4.76,5.84-3.19,14.42-9.92,25.75-20.21,1.57-1.44,3.54-3.34,5.92-5.68,1.08-.51,3.27-2.52,6.57-6.03,3.87-4.1,7.63-7.42,11.27-9.97v4.43c0,11.44-1.43,20.6-4.3,27.48-2.85,6.89-6.63,10.33-11.31,10.33-1.1,0-2.13-.22-3.08-.7-.96-.46-1.87-1.18-2.74-2.17.34.12.71.2,1.08.26.38.06.83.09,1.35.09,1.33,0,2.56-.63,3.68-1.87,1.14-1.24,1.69-2.62,1.69-4.12,0-2.02-.56-3.62-1.69-4.81-1.12-1.18-2.64-1.78-4.55-1.78-2.14,0-3.94.75-5.42,2.25-1.47,1.5-2.21,3.35-2.21,5.55,0,3.29,1.52,6.1,4.56,8.41,3.03,2.31,6.77,3.47,11.23,3.47,5.67,0,11.25-1.57,16.74-4.72,5.49-3.15,13.58-10.02,24.29-20.6,1.61-1.61,3.9-3.95,6.84-7.02.17-.17.32-.33.49-.5,3.37-3.48,6.44-6.44,9.19-8.88l.12-.11,1.31-1.27c-.05.08-.09.17-.14.25-.63,1.14-1.54,2.7-2.72,4.69-7.58,13.07-11.36,21.95-11.36,26.63,0,3.59.94,6.37,2.82,8.37,1.87,1.99,4.49,2.98,7.84,2.98,3.77,0,7.83-1.43,12.18-4.33,4.37-2.89,10.48-8.35,18.35-16.39,1.04-1.08,2.33-2.43,3.87-4.03-.91,2.77-1.36,5.64-1.36,8.62,0,4.75,1.43,8.58,4.3,11.53,2.85,2.95,6.57,4.43,11.14,4.43,4.33,0,8.66-1.55,12.97-4.64,4.3-3.09,9.24-8.28,14.78-15.57l-12.14,21.68c-17.17,5.61-29.95,11.53-38.33,17.79-8.38,6.24-12.58,12.92-12.58,20.03,0,3.75,1.53,6.88,4.59,9.37,3.07,2.49,7.02,3.73,11.88,3.73,8.5,0,16.93-4.22,25.28-12.62,8.36-8.42,17.28-21.79,26.76-40.11,12.08-4.05,24.64-12.47,37.68-25.24,8.32-8.16,14.82-14.21,19.51-18.18.21-.08.4-.12.57-.12.4.06.71.22.91.52.2.28.3.72.3,1.3,0,1.09-1.01,3.37-3.03,6.84s-5.26,8.48-9.71,15l-13.88,20.38,23.41-1.21c10.76-15.61,20.57-27.96,29.45-37.04,8.87-9.07,15.54-13.61,19.99-13.61.64.06,1.09.21,1.35.47s.39.65.39,1.17c0,.75-1.8,3.21-5.38,7.37-2.08,2.49-3.79,4.51-5.13,6.07-4.27,5.32-7.15,9.57-8.62,12.75-1.48,3.17-2.21,6.32-2.21,9.45,0,4.27,1.07,7.74,3.21,10.41,2.13,2.66,4.85,3.99,8.15,3.99,6.02,0,16.14-7.2,30.36-21.6l.95-.95,2.26-2.34c13.36-13.47,22.2-21.34,26.54-23.59-.18,0-.4-.04-.7-.09ZM306.99,186.42c4.89-5.75,8.81-8.63,11.76-8.63,1.03,0,1.94.5,2.72,1.48.78.98,1.17,2.17,1.17,3.55,0,4.91-2.83,10.01-8.5,15.26-5.66,5.27-12.14,8.44-19.42,9.54,3.29-8.38,7.38-15.45,12.27-21.21ZM448.26,268.9c-5.17,6.51-9.98,9.76-14.43,9.76-2.83,0-5.03-.72-6.6-2.17-1.56-1.44-2.34-3.49-2.34-6.16,0-5.84,4.04-12.13,12.1-18.86,8.06-6.74,18.48-12.27,31.26-16.6-8.15,16.19-14.81,27.53-19.99,34.03ZM476.06,212.31c-3.99,4.69-7.86,8.37-11.63,11.06-3.75,2.69-6.94,4.04-9.53,4.04-1.22,0-2.14-.36-2.78-1.04-.64-.7-.95-1.71-.95-3.03,0-2.08,1.27-5.41,3.81-9.98,2.55-4.56,6.07-9.97,10.57-16.21,4.75-6.54,8.76-11.37,12.07-14.49,3.29-3.11,6.04-4.68,8.23-4.68,1.97,0,3.59.66,4.85,1.99,1.28,1.34,1.92,3.04,1.92,5.13,0,2.31-1.5,5.93-4.51,10.88-3.01,4.94-7.03,10.4-12.05,16.34Z"/>
        <path class="cls-2" d="M440.03,149.01c-1.3-1.28-3.03-1.91-5.16-1.91-2.49,0-4.72.92-6.73,2.77-1.99,1.85-3,3.93-3,6.24s.65,4,1.95,5.25c1.3,1.24,3.14,1.87,5.51,1.87,2.55,0,4.75-.91,6.6-2.74,1.85-1.82,2.77-3.98,2.77-6.47,0-2.07-.65-3.75-1.94-5.02ZM398.31,197.33c.62-.56,1.35-1.26,2.2-2.11,1.28-1.27,2.31-2.27,3.13-3.03l3.86-3.74c-2.75,2.44-5.81,5.4-9.19,8.88Z"/>
      </g>
    </g>
  </g>
</svg>