<?xml version="1.0" encoding="UTF-8"?>
<svg id="Layer_2" data-name="Layer 2" xmlns="http://www.w3.org/2000/svg" viewBox="0 0 400 400">
  <defs>
    <style>
      .cls-1 {
        fill: #b455ff;
        stroke-width: 0px;
      }

      .cls-2 {
        fill: #fee125;
        stroke: #fff;
        stroke-miterlimit: 10;
        stroke-width: 3px;
      }
    </style>
  </defs>
  <g id="Layer_1-2" data-name="Layer 1">
    <g>
      <rect class="cls-1" width="400" height="400"/>
      <g>
        <path class="cls-2" d="M84.18,209.97c3.54-3.44,7.71-10.05,12.52-19.84,1.34-2.71,2.37-4.74,3.11-6.11,2.34-4.54,5.06-8.77,8.17-12.67,3.11-3.91,6.33-7.18,9.67-9.82-2.34-2.5-5.07-4.36-8.19-5.56-3.12-1.2-6.72-1.8-10.8-1.8-5.21,0-10.12,1.22-14.73,3.66-4.61,2.44-8.48,5.89-11.62,10.37-2.1,2.97-3.76,6-4.96,9.09-1.2,3.09-1.8,5.74-1.8,7.94,0,2.44.8,4.42,2.4,5.94,1.6,1.52,3.71,2.28,6.31,2.28,5.31,0,10.19-2.61,14.65-7.84,4.46-5.23,6.69-11.1,6.69-17.61,0-.2-.02-.43-.05-.68-.03-.25-.05-.39-.05-.43,0-.63.08-1.13.23-1.5.15-.37.34-.55.58-.55.33,0,.59.17.78.5.18.33.28.82.28,1.45,0,7.51-2.38,14.13-7.14,19.84-4.76,5.71-10.18,8.57-16.26,8.57-4.11,0-7.55-1.37-10.32-4.11-2.77-2.74-4.16-6.09-4.16-10.07,0-3.01.77-5.91,2.3-8.72,1.54-2.81,3.87-5.58,7.01-8.32,4.21-3.61,8.87-6.42,14-8.44,5.13-2.02,10.14-3.03,15.05-3.03,4.47,0,8.47.64,11.97,1.93,3.51,1.29,6.63,3.25,9.37,5.89,1.5-1,2.89-1.8,4.16-2.4,1.27-.6,2.17-.9,2.71-.9.13,0,.27.04.4.13.13.08.2.18.2.28,0,.37-.76.9-2.28,1.6-1.52.7-2.81,1.57-3.88,2.6,2.4,2.87,4.17,5.84,5.31,8.89,1.13,3.06,1.7,6.39,1.7,9.99,0,4.48-.83,9.03-2.48,13.65-1.65,4.63-3.92,8.73-6.79,12.3-2.6,3.31-5.62,5.89-9.04,7.76-3.42,1.87-6.84,2.81-10.24,2.81-2.1,0-4.16-.23-6.16-.7s-4.19-1.25-6.56-2.35c-2.44,1.14-4.87,1.98-7.29,2.53-2.42.55-4.8.83-7.14.83-3.94,0-7.06-.54-9.37-1.63-2.3-1.08-3.46-2.51-3.46-4.28,0-1.57.87-2.81,2.6-3.71,1.74-.9,4.14-1.35,7.21-1.35,1.9,0,3.99.26,6.26.78,2.27.52,5.31,1.46,9.12,2.83ZM82.28,211.92c-2.5-1.27-5.03-2.24-7.56-2.91-2.54-.67-4.98-1-7.31-1-2.04,0-3.61.29-4.71.88-1.1.58-1.65,1.43-1.65,2.53s.95,2.14,2.86,3.01c1.9.87,4.26,1.3,7.06,1.3,2.24,0,4.27-.31,6.09-.93,1.82-.62,3.56-1.58,5.23-2.88ZM90.99,211.92c2.04,1,3.71,1.7,5.03,2.08,1.32.38,2.65.58,3.98.58,2.91,0,5.7-.68,8.39-2.05,2.69-1.37,5.18-3.39,7.49-6.06,2.71-3.11,4.93-7.05,6.66-11.85,1.74-4.79,2.6-9.43,2.6-13.9,0-3.34-.48-6.45-1.43-9.34-.95-2.89-2.43-5.69-4.43-8.39-2.27,2.87-4.58,8.47-6.91,16.78-1.34,4.71-2.45,8.32-3.36,10.82-1.74,4.78-4.08,8.89-7.01,12.35-2.94,3.46-6.61,6.45-11.02,8.99Z"/>
        <path class="cls-2" d="M340.61,189.18c-.4-.1-.65-.15-.75-.15-1.68,0-7.59,4.95-17.74,14.83l-1.96,1.91c-2.87,2.77-5.33,4.92-7.39,6.44-2.06,1.52-3.5,2.28-4.34,2.28-.34,0-.6-.08-.8-.25-.2-.16-.3-.38-.3-.65,0-.64.7-1.81,2.11-3.51.6-.73,1.1-1.35,1.5-1.85,3.04-3.91,5.06-6.9,6.07-8.99,1-2.09,1.5-4.08,1.5-5.98,0-2.57-.55-4.59-1.68-6.04s-2.68-2.18-4.69-2.18c-2.27,0-5.05,1.27-8.36,3.78-3.3,2.52-7.22,6.39-11.72,11.6.64-1.54,1.12-3.03,1.46-4.49.33-1.45.5-2.86.5-4.23,0-1.97-.4-3.56-1.18-4.75-.79-1.2-1.8-1.81-3.03-1.81s-2.78.73-4.71,2.2c-1.94,1.47-4.4,3.8-7.41,6.96-.73.74-1.26,1.33-1.57,1.78-.14.2-.25.39-.33.57-2.82,2.72-5.1,4.84-6.81,6.37-3.51,3.11-6.7,5.64-9.6,7.59-2.89,1.96-5.37,3.28-7.43,3.99l16.28-29.56-10.12.85-2.8,4.81c-.34-1.87-1.16-3.28-2.48-4.23-1.32-.95-3.08-1.43-5.29-1.43s-4.76.6-7.46,1.78c-2.71,1.19-5.53,2.91-8.47,5.18-2,1.61-3.68,3.22-5.03,4.82-1.98,1.92-4.36,4.3-7.15,7.11-3.54,3.6-6.48,6.35-8.84,8.23-2.35,1.89-3.99,2.83-4.93,2.83-.27,0-.49-.08-.65-.25s-.25-.38-.25-.66c0-.43.41-1.5,1.23-3.2.81-1.7,2.01-3.99,3.58-6.87l10.37-18.99-10.67.75c-1.14,1.4-2.65,3.06-4.56,4.96-.27.27-.45.45-.55.55l-2.42,2.42c-1.13.99-2.38,2.15-3.76,3.46-5.7,5.43-10.65,9.79-14.86,13.1,1.3-1.47,2.23-2.85,2.78-4.13.55-1.29.82-2.72.82-4.29,0-3.24-.94-6.28-2.82-9.12-1.89-2.84-2.83-4.56-2.83-5.16,0-.7.44-1.55,1.33-2.53.88-.98,1.33-1.61,1.33-1.88s-.12-.51-.38-.75c-.25-.24-.53-.36-.83-.36-.64,0-1.33.68-2.1,2.06-.37.66-.67,1.18-.9,1.55-.53.77-2.02,2.3-4.46,4.6-.64.6-1.14,1.07-1.5,1.4l-3.06,2.91c-.22.2-.47.43-.75.69-.14.13-.29.27-.45.41-.59.51-1.2,1.07-1.85,1.66-2.91,2.64-5.25,4.73-7.02,6.27-5.34,4.67-9.49,7.79-12.42,9.34-2.94,1.55-5.73,2.33-8.36,2.33-1.07,0-1.85-.15-2.36-.45-.5-.3-.75-.8-.75-1.5,0-.57.15-1.38.44-2.43.3-1.05.83-2.66,1.61-4.83,6.21-1.04,11.27-2.93,15.18-5.66,3.91-2.74,5.86-5.71,5.86-8.92,0-2-.58-3.58-1.75-4.73-1.17-1.15-2.78-1.73-4.81-1.73-2.24,0-4.74.58-7.49,1.73-2.76,1.16-5.49,2.76-8.19,4.84-3.17,2.43-5.55,4.92-7.11,7.43-1.57,2.52-2.35,5.1-2.35,7.74,0,3.14,1.04,5.68,3.13,7.64,2.09,1.96,4.85,2.93,8.29,2.93,3.24,0,6.55-.92,9.92-2.75,3.37-1.84,8.33-5.73,14.88-11.68.91-.83,2.05-1.93,3.42-3.28.62-.29,1.89-1.46,3.8-3.48,2.24-2.37,4.4-4.29,6.51-5.76v2.56c0,6.61-.83,11.9-2.48,15.87-1.65,3.98-3.83,5.96-6.53,5.96-.64,0-1.23-.13-1.78-.4-.55-.27-1.08-.68-1.58-1.25.2.07.41.12.62.15.22.03.48.05.78.05.77,0,1.48-.36,2.13-1.08.66-.72.98-1.51.98-2.38,0-1.17-.32-2.09-.98-2.78-.65-.68-1.53-1.03-2.63-1.03-1.24,0-2.28.43-3.13,1.3-.85.87-1.28,1.94-1.28,3.21,0,1.9.88,3.52,2.63,4.86,1.75,1.33,3.91,2,6.48,2,3.28,0,6.5-.91,9.67-2.73,3.17-1.82,7.85-5.79,14.03-11.9.93-.93,2.25-2.28,3.95-4.06.1-.1.18-.19.28-.29,1.95-2.01,3.72-3.72,5.31-5.13l.07-.06.76-.73s-.05.1-.08.14c-.36.66-.89,1.56-1.57,2.71-4.38,7.55-6.56,12.68-6.56,15.38,0,2.07.54,3.68,1.63,4.84,1.08,1.15,2.59,1.72,4.53,1.72,2.18,0,4.52-.83,7.04-2.5,2.52-1.67,6.05-4.82,10.6-9.47.6-.62,1.35-1.4,2.24-2.33-.53,1.6-.79,3.26-.79,4.98,0,2.74.83,4.96,2.48,6.66,1.65,1.7,3.8,2.56,6.44,2.56,2.5,0,5-.9,7.49-2.68,2.48-1.79,5.33-4.78,8.54-8.99l-7.01,12.52c-9.92,3.24-17.3,6.66-22.14,10.27-4.84,3.6-7.26,7.46-7.26,11.57,0,2.17.88,3.97,2.65,5.41,1.77,1.44,4.06,2.15,6.86,2.15,4.91,0,9.78-2.43,14.6-7.29,4.83-4.86,9.98-12.58,15.46-23.17,6.98-2.34,14.23-7.2,21.76-14.58,4.81-4.71,8.56-8.21,11.27-10.5.12-.05.23-.07.33-.07.23.03.41.13.53.3.12.16.17.42.17.75,0,.63-.58,1.95-1.75,3.95-1.17,2-3.04,4.9-5.61,8.67l-8.02,11.77,13.52-.7c6.22-9.01,11.88-16.15,17.01-21.39,5.12-5.24,8.97-7.86,11.55-7.86.37.03.63.12.78.27s.23.38.23.68c0,.43-1.04,1.85-3.11,4.25-1.2,1.44-2.19,2.61-2.96,3.51-2.47,3.07-4.13,5.53-4.98,7.37-.85,1.83-1.28,3.65-1.28,5.46,0,2.47.62,4.47,1.85,6.01,1.23,1.54,2.8,2.3,4.71,2.3,3.47,0,9.32-4.16,17.54-12.48l.55-.55,1.31-1.35c7.72-7.78,12.82-12.33,15.33-13.62-.1,0-.23-.02-.4-.05ZM146.27,192.16c2.82-3.32,5.09-4.99,6.79-4.99.6,0,1.12.29,1.57.85.45.57.68,1.25.68,2.05,0,2.84-1.63,5.78-4.91,8.82-3.27,3.04-7.01,4.88-11.22,5.51,1.9-4.84,4.26-8.93,7.09-12.25ZM227.88,239.8c-2.99,3.76-5.77,5.64-8.34,5.64-1.63,0-2.91-.42-3.81-1.25-.9-.83-1.35-2.02-1.35-3.56,0-3.37,2.33-7,6.99-10.9,4.66-3.89,10.68-7.09,18.06-9.59-4.71,9.35-8.56,15.9-11.55,19.66ZM243.94,207.11c-2.3,2.71-4.54,4.84-6.72,6.39-2.17,1.55-4.01,2.33-5.51,2.33-.7,0-1.24-.21-1.61-.6-.37-.4-.55-.98-.55-1.75,0-1.2.73-3.13,2.2-5.77,1.47-2.63,3.51-5.76,6.11-9.36,2.74-3.78,5.06-6.57,6.97-8.37,1.9-1.8,3.49-2.7,4.75-2.7,1.14,0,2.07.38,2.8,1.15.74.77,1.11,1.76,1.11,2.96,0,1.33-.87,3.43-2.61,6.29-1.74,2.85-4.06,6.01-6.96,9.44Z"/>
        <path class="cls-2" d="M223.12,170.55c-.75-.74-1.75-1.1-2.98-1.1-1.44,0-2.73.53-3.88,1.6-1.15,1.07-1.73,2.27-1.73,3.6s.38,2.31,1.13,3.03c.75.72,1.81,1.08,3.18,1.08,1.47,0,2.74-.53,3.81-1.58,1.07-1.05,1.6-2.3,1.6-3.73,0-1.2-.38-2.17-1.12-2.9ZM199.03,198.46c.36-.32.78-.73,1.27-1.22.74-.73,1.33-1.31,1.81-1.75l2.23-2.16c-1.59,1.41-3.36,3.12-5.31,5.13Z"/>
      </g>
    </g>
  </g>
</svg>