<?xml version="1.0" encoding="UTF-8"?>
<svg id="Layer_2" data-name="Layer 2" xmlns="http://www.w3.org/2000/svg" viewBox="0 0 800 400">
  <defs>
    <style>
      .cls-1 {
        fill: #b455ff;
        stroke-width: 0px;
      }

      .cls-2 {
        fill: #fee125;
        stroke: #fff;
        stroke-miterlimit: 10;
        stroke-width: 3px;
      }
    </style>
  </defs>
  <g id="Layer_1-2" data-name="Layer 1">
    <g>
      <rect class="cls-1" width="800" height="400"/>
      <g>
        <path class="cls-2" d="M212.76,216.11c5.72-5.56,12.47-16.25,20.25-32.07,2.16-4.37,3.83-7.67,5.02-9.88,3.78-7.34,8.18-14.17,13.2-20.49,5.02-6.32,10.23-11.61,15.63-15.87-3.78-4.05-8.19-7.05-13.24-8.99-5.05-1.94-10.87-2.92-17.45-2.92-8.42,0-16.36,1.97-23.81,5.91-7.45,3.94-13.71,9.53-18.79,16.76-3.4,4.81-6.07,9.71-8.02,14.7-1.94,4.99-2.92,9.27-2.92,12.84,0,3.94,1.3,7.14,3.89,9.6,2.59,2.46,5.99,3.68,10.2,3.68,8.58,0,16.48-4.22,23.69-12.67,7.21-8.45,10.81-17.94,10.81-28.47,0-.32-.03-.69-.08-1.09-.05-.4-.08-.63-.08-.69,0-1.02.12-1.83.36-2.43.24-.59.55-.89.93-.89.54,0,.96.27,1.26.81.3.54.45,1.32.45,2.35,0,12.15-3.85,22.84-11.54,32.07-7.69,9.23-16.45,13.85-26.28,13.85-6.64,0-12.2-2.21-16.68-6.64-4.48-4.43-6.72-9.85-6.72-16.28,0-4.86,1.24-9.56,3.73-14.09,2.48-4.54,6.26-9.02,11.34-13.44,6.8-5.83,14.35-10.38,22.64-13.65,8.29-3.27,16.4-4.9,24.34-4.9,7.23,0,13.69,1.04,19.36,3.12,5.67,2.08,10.72,5.25,15.14,9.52,2.43-1.62,4.67-2.92,6.72-3.89,2.05-.97,3.51-1.46,4.37-1.46.21,0,.43.07.65.2.21.14.32.28.32.45,0,.59-1.23,1.46-3.68,2.59-2.46,1.13-4.55,2.54-6.28,4.21,3.89,4.64,6.75,9.43,8.58,14.37,1.83,4.94,2.75,10.33,2.75,16.16,0,7.24-1.34,14.59-4.01,22.07-2.67,7.48-6.33,14.11-10.97,19.88-4.21,5.35-9.08,9.53-14.62,12.55-5.54,3.02-11.05,4.54-16.56,4.54-3.4,0-6.72-.38-9.96-1.13-3.24-.76-6.78-2.02-10.61-3.81-3.94,1.84-7.87,3.2-11.78,4.09-3.92.89-7.76,1.34-11.54,1.34-6.37,0-11.42-.88-15.14-2.63-3.73-1.75-5.59-4.06-5.59-6.92,0-2.54,1.4-4.54,4.21-5.99,2.81-1.46,6.69-2.19,11.66-2.19,3.08,0,6.45.42,10.12,1.26,3.67.84,8.58,2.36,14.74,4.58ZM209.69,219.27c-4.05-2.05-8.13-3.62-12.23-4.7-4.1-1.08-8.05-1.62-11.82-1.62-3.29,0-5.83.47-7.61,1.42-1.78.95-2.67,2.31-2.67,4.09s1.54,3.46,4.62,4.86c3.08,1.4,6.88,2.11,11.42,2.11,3.62,0,6.9-.5,9.84-1.5,2.94-1,5.76-2.55,8.46-4.66ZM223.78,219.27c3.29,1.62,6.01,2.74,8.14,3.36,2.13.62,4.28.93,6.44.93,4.7,0,9.22-1.11,13.56-3.32,4.35-2.21,8.38-5.48,12.11-9.8,4.37-5.02,7.96-11.4,10.77-19.15,2.81-7.75,4.21-15.24,4.21-22.47,0-5.4-.77-10.43-2.31-15.1-1.54-4.67-3.93-9.19-7.17-13.56-3.67,4.64-7.4,13.69-11.18,27.13-2.16,7.61-3.97,13.44-5.43,17.49-2.81,7.72-6.59,14.37-11.34,19.96-4.75,5.59-10.69,10.43-17.82,14.54Z"/>
        <path class="cls-2" d="M627.32,182.5c-.64-.15-1.05-.24-1.21-.24-2.71,0-12.26,7.99-28.67,23.97l-3.16,3.08c-4.64,4.48-8.62,7.95-11.94,10.4-3.33,2.45-5.66,3.68-7.01,3.68-.54,0-.97-.13-1.29-.41-.32-.27-.49-.62-.49-1.05,0-1.03,1.14-2.92,3.41-5.67.97-1.18,1.78-2.18,2.42-3,4.92-6.31,8.18-11.16,9.81-14.53,1.61-3.37,2.42-6.6,2.42-9.67,0-4.16-.9-7.42-2.71-9.76-1.81-2.34-4.33-3.53-7.57-3.53-3.67,0-8.17,2.05-13.52,6.11-5.34,4.08-11.67,10.33-18.95,18.75,1.03-2.49,1.81-4.9,2.36-7.25.53-2.34.81-4.62.81-6.84,0-3.18-.64-5.75-1.9-7.68-1.27-1.95-2.91-2.92-4.9-2.92s-4.49,1.18-7.62,3.56c-3.13,2.38-7.12,6.14-11.99,11.26-1.18,1.19-2.03,2.15-2.54,2.87-.23.32-.41.63-.53.92-4.56,4.39-8.24,7.82-11.01,10.31-5.67,5.02-10.84,9.11-15.51,12.26-4.67,3.16-8.68,5.31-12.02,6.45l26.32-47.79-16.36,1.38-4.53,7.77c-.54-3.02-1.87-5.31-4-6.84-2.13-1.54-4.99-2.31-8.55-2.31s-7.7.96-12.06,2.87c-4.38,1.92-8.93,4.71-13.69,8.38-3.24,2.61-5.95,5.21-8.13,7.8-3.21,3.11-7.05,6.94-11.55,11.49-5.72,5.83-10.48,10.27-14.3,13.31-3.8,3.05-6.46,4.58-7.97,4.58-.43,0-.79-.13-1.05-.4s-.41-.62-.41-1.06c0-.7.66-2.42,1.99-5.17,1.32-2.75,3.25-6.46,5.78-11.1l16.76-30.69-17.25,1.22c-1.84,2.27-4.29,4.94-7.36,8.02-.43.43-.73.73-.9.9l-3.91,3.91c-1.82,1.6-3.85,3.47-6.08,5.59-9.21,8.78-17.22,15.83-24.02,21.19,2.1-2.38,3.6-4.6,4.5-6.68.88-2.08,1.33-4.39,1.33-6.93,0-5.23-1.53-10.15-4.57-14.74-3.05-4.59-4.58-7.36-4.58-8.34,0-1.14.71-2.5,2.15-4.09,1.43-1.59,2.15-2.6,2.15-3.04s-.2-.83-.61-1.21c-.41-.39-.85-.57-1.34-.57-1.03,0-2.16,1.11-3.39,3.33-.6,1.07-1.08,1.91-1.46,2.51-.86,1.24-3.27,3.72-7.21,7.44-1.03.97-1.84,1.74-2.43,2.27l-4.94,4.7c-.35.32-.75.7-1.22,1.12-.22.21-.46.43-.73.66-.95.83-1.95,1.72-2.99,2.68-4.7,4.27-8.48,7.64-11.34,10.13-8.64,7.55-15.34,12.59-20.08,15.1-4.75,2.51-9.27,3.76-13.52,3.76-1.74,0-3-.24-3.81-.73-.81-.49-1.21-1.29-1.21-2.42,0-.92.24-2.23.72-3.94.49-1.69,1.35-4.3,2.6-7.81,10.04-1.68,18.22-4.73,24.54-9.16,6.31-4.42,9.48-9.23,9.48-14.42,0-3.24-.94-5.78-2.83-7.65-1.89-1.86-4.49-2.8-7.77-2.8-3.63,0-7.66.94-12.11,2.8-4.46,1.87-8.87,4.47-13.25,7.82-5.13,3.94-8.97,7.95-11.5,12.02-2.54,4.08-3.8,8.25-3.8,12.52,0,5.08,1.68,9.19,5.06,12.35,3.37,3.16,7.84,4.73,13.4,4.73,5.23,0,10.58-1.48,16.03-4.44,5.45-2.97,13.47-9.27,24.05-18.87,1.47-1.35,3.31-3.12,5.53-5.31,1.01-.48,3.05-2.36,6.14-5.63,3.62-3.83,7.12-6.93,10.53-9.31v4.14c0,10.68-1.34,19.24-4.01,25.66-2.66,6.44-6.19,9.64-10.56,9.64-1.03,0-1.99-.21-2.87-.65-.9-.43-1.75-1.11-2.55-2.02.32.11.66.19,1.01.24.35.06.77.09,1.26.09,1.24,0,2.39-.59,3.44-1.75,1.06-1.16,1.58-2.44,1.58-3.85,0-1.89-.52-3.38-1.58-4.49-1.05-1.11-2.47-1.66-4.25-1.66-2,0-3.68.7-5.06,2.1-1.37,1.4-2.07,3.13-2.07,5.19,0,3.07,1.42,5.69,4.26,7.85,2.83,2.16,6.32,3.24,10.48,3.24,5.3,0,10.5-1.47,15.63-4.41,5.13-2.94,12.68-9.35,22.68-19.24,1.5-1.5,3.64-3.69,6.39-6.56.15-.15.3-.31.45-.46,3.15-3.25,6.02-6.02,8.58-8.29l.11-.1,1.23-1.18c-.04.08-.09.15-.13.23-.59,1.06-1.44,2.52-2.54,4.38-7.08,12.21-10.6,20.5-10.6,24.87,0,3.35.87,5.95,2.63,7.82,1.75,1.86,4.19,2.79,7.32,2.79,3.52,0,7.31-1.34,11.38-4.05,4.08-2.7,9.79-7.8,17.14-15.3.97-1.01,2.18-2.27,3.62-3.76-.85,2.59-1.27,5.26-1.27,8.05,0,4.43,1.34,8.02,4.01,10.77,2.66,2.75,6.14,4.14,10.4,4.14,4.05,0,8.08-1.45,12.11-4.33,4.01-2.89,8.62-7.73,13.8-14.54l-11.33,20.25c-16.03,5.24-27.96,10.77-35.79,16.61-7.83,5.83-11.74,12.06-11.74,18.71,0,3.51,1.43,6.42,4.29,8.75,2.86,2.32,6.56,3.48,11.09,3.48,7.94,0,15.81-3.94,23.61-11.79,7.81-7.86,16.13-20.35,24.99-37.45,11.28-3.78,23.01-11.64,35.18-23.57,7.77-7.62,13.84-13.27,18.22-16.97.2-.08.38-.11.53-.11.38.06.66.21.85.49.19.27.28.67.28,1.22,0,1.02-.94,3.15-2.83,6.39-1.89,3.24-4.91,7.92-9.07,14.01l-12.96,19.03,21.86-1.13c10.05-14.57,19.21-26.11,27.5-34.59,8.28-8.47,14.51-12.7,18.66-12.7.6.06,1.02.2,1.26.44s.36.61.36,1.09c0,.7-1.68,3-5.02,6.88-1.95,2.32-3.54,4.21-4.79,5.67-3.99,4.96-6.68,8.93-8.05,11.91-1.38,2.96-2.07,5.9-2.07,8.82,0,3.99,1,7.23,3,9.72,1.99,2.49,4.53,3.73,7.61,3.73,5.62,0,15.07-6.72,28.35-20.17l.88-.88,2.11-2.19c12.47-12.58,20.73-19.92,24.78-22.03-.17,0-.38-.03-.65-.09ZM313.14,187.32c4.57-5.37,8.23-8.06,10.98-8.06.96,0,1.81.46,2.54,1.38.73.92,1.09,2.02,1.09,3.32,0,4.59-2.64,9.34-7.94,14.25-5.29,4.92-11.33,7.88-18.13,8.91,3.07-7.83,6.89-14.43,11.46-19.8ZM445.07,264.34c-4.83,6.08-9.32,9.11-13.48,9.11-2.64,0-4.7-.67-6.16-2.02-1.46-1.35-2.19-3.26-2.19-5.75,0-5.45,3.77-11.32,11.3-17.61s17.26-11.46,29.19-15.5c-7.61,15.12-13.83,25.71-18.66,31.78ZM471.03,211.49c-3.73,4.38-7.34,7.82-10.86,10.33-3.51,2.51-6.48,3.77-8.9,3.77-1.14,0-2-.33-2.6-.97-.6-.65-.88-1.59-.88-2.83,0-1.95,1.18-5.05,3.56-9.32,2.38-4.26,5.67-9.31,9.87-15.14,4.43-6.1,8.18-10.61,11.27-13.53,3.07-2.91,5.64-4.37,7.68-4.37,1.84,0,3.35.62,4.53,1.86,1.19,1.25,1.79,2.84,1.79,4.79,0,2.16-1.4,5.54-4.21,10.16-2.81,4.61-6.57,9.71-11.26,15.26Z"/>
        <path class="cls-2" d="M437.38,152.38c-1.22-1.19-2.83-1.78-4.82-1.78-2.32,0-4.41.86-6.28,2.59-1.86,1.72-2.8,3.67-2.8,5.83s.61,3.74,1.82,4.9c1.22,1.16,2.93,1.75,5.14,1.75,2.38,0,4.43-.85,6.16-2.55,1.72-1.7,2.59-3.72,2.59-6.04,0-1.93-.61-3.51-1.81-4.69ZM398.43,197.51c.57-.52,1.26-1.17,2.06-1.97,1.19-1.18,2.16-2.12,2.92-2.83l3.6-3.49c-2.57,2.28-5.43,5.04-8.58,8.29Z"/>
      </g>
    </g>
  </g>
</svg>